<svg width="419" height="74" viewBox="0 0 419 74" fill="none" xmlns="http://www.w3.org/2000/svg">
<path d="M25.1758 8.5625V37H21.3867L7.07031 15.0664V37H3.30078V8.5625H7.07031L21.4453 30.5547V8.5625H25.1758ZM35.8984 8.5625V37H32.1289V8.5625H35.8984ZM59.9219 27.957H63.6719C63.4766 29.7539 62.9622 31.362 62.1289 32.7812C61.2956 34.2005 60.1172 35.3268 58.5938 36.1602C57.0703 36.9805 55.1693 37.3906 52.8906 37.3906C51.224 37.3906 49.707 37.0781 48.3398 36.4531C46.9857 35.8281 45.8203 34.9427 44.8438 33.7969C43.8672 32.638 43.112 31.2513 42.5781 29.6367C42.0573 28.0091 41.7969 26.1992 41.7969 24.207V21.375C41.7969 19.3828 42.0573 17.5794 42.5781 15.9648C43.112 14.3372 43.8737 12.944 44.8633 11.7852C45.8659 10.6263 47.0703 9.73438 48.4766 9.10938C49.8828 8.48438 51.4648 8.17188 53.2227 8.17188C55.3711 8.17188 57.1875 8.57552 58.6719 9.38281C60.1562 10.1901 61.3086 11.3099 62.1289 12.7422C62.9622 14.1615 63.4766 15.8086 63.6719 17.6836H59.9219C59.7396 16.3555 59.401 15.2161 58.9062 14.2656C58.4115 13.3021 57.7083 12.5599 56.7969 12.0391C55.8854 11.5182 54.694 11.2578 53.2227 11.2578C51.9596 11.2578 50.8464 11.4987 49.8828 11.9805C48.9323 12.4622 48.1315 13.1458 47.4805 14.0312C46.8424 14.9167 46.3607 15.9779 46.0352 17.2148C45.7096 18.4518 45.5469 19.8255 45.5469 21.3359V24.207C45.5469 25.6003 45.6901 26.9089 45.9766 28.1328C46.276 29.3568 46.7253 30.431 47.3242 31.3555C47.9232 32.2799 48.6849 33.0091 49.6094 33.543C50.5339 34.0638 51.6276 34.3242 52.8906 34.3242C54.4922 34.3242 55.7682 34.0703 56.7188 33.5625C57.6693 33.0547 58.3854 32.3255 58.8672 31.375C59.362 30.4245 59.7135 29.2852 59.9219 27.957ZM72.5781 8.5625V37H68.8086V8.5625H72.5781ZM89.7461 8.5625L77.9297 21.8242L71.2891 28.7188L70.6641 24.6953L75.6641 19.1875L85.2148 8.5625H89.7461ZM86.1133 37L75.5859 23.1328L77.832 20.1445L90.6055 37H86.1133Z" fill="black"/>
<path d="M58.3633 44.4062V70H54.9707V44.4062H58.3633ZM69.0859 55.9199V58.6973H57.625V55.9199H69.0859ZM70.8262 44.4062V47.1836H57.625V44.4062H70.8262ZM91.1289 67.2402V70H77.5762V67.2402H91.1289ZM78.2617 44.4062V70H74.8691V44.4062H78.2617ZM89.3359 55.4102V58.1699H77.5762V55.4102H89.3359ZM90.9531 44.4062V47.1836H77.5762V44.4062H90.9531ZM110.852 67.2402V70H98.0547V67.2402H110.852ZM98.7227 44.4062V70H95.3301V44.4062H98.7227ZM118.129 44.4062V70H114.736V44.4062H118.129ZM133.58 44.4062L122.945 56.3418L116.969 62.5469L116.406 58.9258L120.906 53.9688L129.502 44.4062H133.58ZM130.311 70L120.836 57.5195L122.857 54.8301L134.354 70H130.311ZM153.602 67.2402V70H140.049V67.2402H153.602ZM140.734 44.4062V70H137.342V44.4062H140.734ZM151.809 55.4102V58.1699H140.049V55.4102H151.809ZM153.426 44.4062V47.1836H140.049V44.4062H153.426ZM157.803 44.4062H166.275C168.197 44.4062 169.82 44.6992 171.145 45.2852C172.48 45.8711 173.494 46.7383 174.186 47.8867C174.889 49.0234 175.24 50.4238 175.24 52.0879C175.24 53.2598 175 54.332 174.52 55.3047C174.051 56.2656 173.371 57.0859 172.48 57.7656C171.602 58.4336 170.547 58.9316 169.316 59.2598L168.367 59.6289H160.404L160.369 56.8691H166.381C167.6 56.8691 168.613 56.6582 169.422 56.2363C170.23 55.8027 170.84 55.2227 171.25 54.4961C171.66 53.7695 171.865 52.9668 171.865 52.0879C171.865 51.1035 171.672 50.2422 171.285 49.5039C170.898 48.7656 170.289 48.1973 169.457 47.7988C168.637 47.3887 167.576 47.1836 166.275 47.1836H161.195V70H157.803V44.4062ZM172.762 70L166.539 58.3984L170.072 58.3809L176.383 69.7891V70H172.762Z" fill="black"/>
<line x1="210.5" y1="22" x2="210.5" y2="55" stroke="black"/>
<path d="M230.617 32.8496V22.7812H232.492V32.8496C232.492 33.7871 232.3 34.5781 231.916 35.2227C231.532 35.8672 231.001 36.3587 230.324 36.6973C229.654 37.0293 228.882 37.1953 228.01 37.1953C227.137 37.1953 226.363 37.0456 225.686 36.7461C225.008 36.4466 224.478 35.9909 224.094 35.3789C223.71 34.7669 223.518 33.9954 223.518 33.0645H225.402C225.402 33.6634 225.513 34.1549 225.734 34.5391C225.956 34.9232 226.262 35.2064 226.652 35.3887C227.049 35.571 227.502 35.6621 228.01 35.6621C228.505 35.6621 228.947 35.5579 229.338 35.3496C229.735 35.1348 230.048 34.819 230.275 34.4023C230.503 33.9792 230.617 33.4616 230.617 32.8496ZM240.734 24.041L236.027 37H234.104L239.523 22.7812H240.764L240.734 24.041ZM244.68 37L239.963 24.041L239.934 22.7812H241.174L246.613 37H244.68ZM244.436 31.7363V33.2793H236.447V31.7363H244.436ZM252.248 34.8418L256.438 22.7812H258.479L253.215 37H251.76L252.248 34.8418ZM248.332 22.7812L252.482 34.8418L253 37H251.545L246.291 22.7812H248.332ZM264.914 24.041L260.207 37H258.283L263.703 22.7812H264.943L264.914 24.041ZM268.859 37L264.143 24.041L264.113 22.7812H265.354L270.793 37H268.859ZM268.615 31.7363V33.2793H260.627V31.7363H268.615ZM280.275 33.4062C280.275 33.0742 280.223 32.7812 280.119 32.5273C280.021 32.2669 279.846 32.0326 279.592 31.8242C279.344 31.6159 278.999 31.4173 278.557 31.2285C278.12 31.0397 277.567 30.8477 276.896 30.6523C276.193 30.444 275.559 30.2129 274.992 29.959C274.426 29.6986 273.941 29.4023 273.537 29.0703C273.133 28.7383 272.824 28.3574 272.609 27.9277C272.395 27.498 272.287 27.0065 272.287 26.4531C272.287 25.8997 272.401 25.3887 272.629 24.9199C272.857 24.4512 273.182 24.0443 273.605 23.6992C274.035 23.3477 274.546 23.0742 275.139 22.8789C275.731 22.6836 276.392 22.5859 277.121 22.5859C278.189 22.5859 279.094 22.791 279.836 23.2012C280.585 23.6048 281.154 24.1354 281.545 24.793C281.936 25.444 282.131 26.1406 282.131 26.8828H280.256C280.256 26.349 280.142 25.877 279.914 25.4668C279.686 25.0501 279.341 24.7246 278.879 24.4902C278.417 24.2493 277.831 24.1289 277.121 24.1289C276.451 24.1289 275.897 24.2298 275.461 24.4316C275.025 24.6335 274.699 24.9069 274.484 25.252C274.276 25.597 274.172 25.9909 274.172 26.4336C274.172 26.7331 274.234 27.0065 274.357 27.2539C274.488 27.4948 274.686 27.7194 274.953 27.9277C275.227 28.1361 275.572 28.3281 275.988 28.5039C276.411 28.6797 276.916 28.849 277.502 29.0117C278.309 29.2396 279.006 29.4935 279.592 29.7734C280.178 30.0534 280.66 30.3691 281.037 30.7207C281.421 31.0658 281.704 31.4596 281.887 31.9023C282.076 32.3385 282.17 32.8333 282.17 33.3867C282.17 33.9661 282.053 34.4902 281.818 34.959C281.584 35.4277 281.249 35.8281 280.812 36.1602C280.376 36.4922 279.852 36.7493 279.24 36.9316C278.635 37.1074 277.958 37.1953 277.209 37.1953C276.551 37.1953 275.904 37.1042 275.266 36.9219C274.634 36.7396 274.058 36.4661 273.537 36.1016C273.023 35.737 272.609 35.2878 272.297 34.7539C271.991 34.2135 271.838 33.5885 271.838 32.8789H273.713C273.713 33.3672 273.807 33.7871 273.996 34.1387C274.185 34.4837 274.442 34.7702 274.768 34.998C275.1 35.2259 275.474 35.3952 275.891 35.5059C276.314 35.61 276.753 35.6621 277.209 35.6621C277.867 35.6621 278.423 35.571 278.879 35.3887C279.335 35.2064 279.68 34.946 279.914 34.6074C280.155 34.2689 280.275 33.8685 280.275 33.4062ZM293.156 32.4785H295.031C294.934 33.377 294.676 34.181 294.26 34.8906C293.843 35.6003 293.254 36.1634 292.492 36.5801C291.73 36.9902 290.78 37.1953 289.641 37.1953C288.807 37.1953 288.049 37.0391 287.365 36.7266C286.688 36.4141 286.105 35.9714 285.617 35.3984C285.129 34.819 284.751 34.1257 284.484 33.3184C284.224 32.5046 284.094 31.5996 284.094 30.6035V29.1875C284.094 28.1914 284.224 27.2897 284.484 26.4824C284.751 25.6686 285.132 24.972 285.627 24.3926C286.128 23.8132 286.73 23.3672 287.434 23.0547C288.137 22.7422 288.928 22.5859 289.807 22.5859C290.881 22.5859 291.789 22.7878 292.531 23.1914C293.273 23.5951 293.85 24.1549 294.26 24.8711C294.676 25.5807 294.934 26.4043 295.031 27.3418H293.156C293.065 26.6777 292.896 26.1081 292.648 25.6328C292.401 25.151 292.049 24.7799 291.594 24.5195C291.138 24.2591 290.542 24.1289 289.807 24.1289C289.175 24.1289 288.618 24.2493 288.137 24.4902C287.661 24.7311 287.261 25.0729 286.936 25.5156C286.617 25.9583 286.376 26.4889 286.213 27.1074C286.05 27.7259 285.969 28.4128 285.969 29.168V30.6035C285.969 31.3001 286.04 31.9544 286.184 32.5664C286.333 33.1784 286.558 33.7155 286.857 34.1777C287.157 34.64 287.538 35.0046 288 35.2715C288.462 35.5319 289.009 35.6621 289.641 35.6621C290.441 35.6621 291.079 35.5352 291.555 35.2812C292.03 35.0273 292.388 34.6628 292.629 34.1875C292.876 33.7122 293.052 33.1426 293.156 32.4785ZM297.6 22.7812H302.307C303.374 22.7812 304.276 22.944 305.012 23.2695C305.754 23.5951 306.317 24.0768 306.701 24.7148C307.092 25.3464 307.287 26.1243 307.287 27.0488C307.287 27.6999 307.154 28.2956 306.887 28.8359C306.626 29.3698 306.249 29.8255 305.754 30.2031C305.266 30.5742 304.68 30.8509 303.996 31.0332L303.469 31.2383H299.045L299.025 29.7051H302.365C303.042 29.7051 303.605 29.5879 304.055 29.3535C304.504 29.1126 304.842 28.7904 305.07 28.3867C305.298 27.9831 305.412 27.5371 305.412 27.0488C305.412 26.502 305.305 26.0234 305.09 25.6133C304.875 25.2031 304.536 24.8874 304.074 24.666C303.618 24.4382 303.029 24.3242 302.307 24.3242H299.484V37H297.6V22.7812ZM305.91 37L302.453 30.5547L304.416 30.5449L307.922 36.8828V37H305.91ZM311.945 22.7812V37H310.061V22.7812H311.945ZM320.617 31.4238H316.818V29.8906H320.617C321.353 29.8906 321.949 29.7734 322.404 29.5391C322.86 29.3047 323.192 28.9792 323.4 28.5625C323.615 28.1458 323.723 27.6706 323.723 27.1367C323.723 26.6484 323.615 26.1895 323.4 25.7598C323.192 25.3301 322.86 24.985 322.404 24.7246C321.949 24.4577 321.353 24.3242 320.617 24.3242H317.258V37H315.373V22.7812H320.617C321.691 22.7812 322.6 22.9668 323.342 23.3379C324.084 23.709 324.647 24.2233 325.031 24.8809C325.415 25.5319 325.607 26.2773 325.607 27.1172C325.607 28.0286 325.415 28.8066 325.031 29.4512C324.647 30.0957 324.084 30.5872 323.342 30.9258C322.6 31.2578 321.691 31.4238 320.617 31.4238ZM333.244 22.7812V37H331.389V22.7812H333.244ZM337.814 22.7812V24.3242H326.828V22.7812H337.814ZM228.498 60H225.529L225.549 58.4668H228.498C229.514 58.4668 230.36 58.2552 231.037 57.832C231.714 57.4023 232.222 56.8034 232.561 56.0352C232.906 55.2604 233.078 54.3555 233.078 53.3203V52.4512C233.078 51.6374 232.98 50.9147 232.785 50.2832C232.59 49.6452 232.303 49.1081 231.926 48.6719C231.548 48.2292 231.086 47.8939 230.539 47.666C229.999 47.4382 229.377 47.3242 228.674 47.3242H225.471V45.7812H228.674C229.605 45.7812 230.454 45.9375 231.223 46.25C231.991 46.556 232.652 47.002 233.205 47.5879C233.765 48.1673 234.195 48.8704 234.494 49.6973C234.794 50.5176 234.943 51.4421 234.943 52.4707V53.3203C234.943 54.349 234.794 55.2767 234.494 56.1035C234.195 56.9238 233.762 57.6237 233.195 58.2031C232.635 58.7826 231.958 59.2285 231.164 59.541C230.376 59.847 229.488 60 228.498 60ZM226.535 45.7812V60H224.65V45.7812H226.535ZM246.809 58.4668V60H239.279V58.4668H246.809ZM239.66 45.7812V60H237.775V45.7812H239.66ZM245.812 51.8945V53.4277H239.279V51.8945H245.812ZM246.711 45.7812V47.3242H239.279V45.7812H246.711ZM253.732 57.8418L257.922 45.7812H259.963L254.699 60H253.244L253.732 57.8418ZM249.816 45.7812L253.967 57.8418L254.484 60H253.029L247.775 45.7812H249.816ZM270.91 58.4668V60H263.381V58.4668H270.91ZM263.762 45.7812V60H261.877V45.7812H263.762ZM269.914 51.8945V53.4277H263.381V51.8945H269.914ZM270.812 45.7812V47.3242H263.381V45.7812H270.812ZM281.867 58.4668V60H274.758V58.4668H281.867ZM275.129 45.7812V60H273.244V45.7812H275.129ZM294.328 52.4414V53.3398C294.328 54.4076 294.195 55.3646 293.928 56.2109C293.661 57.0573 293.277 57.7767 292.775 58.3691C292.274 58.9616 291.672 59.4141 290.969 59.7266C290.272 60.0391 289.491 60.1953 288.625 60.1953C287.785 60.1953 287.014 60.0391 286.311 59.7266C285.614 59.4141 285.008 58.9616 284.494 58.3691C283.986 57.7767 283.592 57.0573 283.312 56.2109C283.033 55.3646 282.893 54.4076 282.893 53.3398V52.4414C282.893 51.3737 283.029 50.4199 283.303 49.5801C283.583 48.7337 283.977 48.0143 284.484 47.4219C284.992 46.8229 285.594 46.3672 286.291 46.0547C286.994 45.7422 287.766 45.5859 288.605 45.5859C289.471 45.5859 290.253 45.7422 290.949 46.0547C291.652 46.3672 292.255 46.8229 292.756 47.4219C293.264 48.0143 293.651 48.7337 293.918 49.5801C294.191 50.4199 294.328 51.3737 294.328 52.4414ZM292.463 53.3398V52.4219C292.463 51.5755 292.375 50.8268 292.199 50.1758C292.03 49.5247 291.779 48.9779 291.447 48.5352C291.115 48.0924 290.708 47.7572 290.227 47.5293C289.751 47.3014 289.211 47.1875 288.605 47.1875C288.02 47.1875 287.489 47.3014 287.014 47.5293C286.545 47.7572 286.141 48.0924 285.803 48.5352C285.471 48.9779 285.214 49.5247 285.031 50.1758C284.849 50.8268 284.758 51.5755 284.758 52.4219V53.3398C284.758 54.1927 284.849 54.9479 285.031 55.6055C285.214 56.2565 285.474 56.8066 285.812 57.2559C286.158 57.6986 286.564 58.0339 287.033 58.2617C287.508 58.4896 288.039 58.6035 288.625 58.6035C289.237 58.6035 289.781 58.4896 290.256 58.2617C290.731 58.0339 291.132 57.6986 291.457 57.2559C291.789 56.8066 292.04 56.2565 292.209 55.6055C292.378 54.9479 292.463 54.1927 292.463 53.3398ZM302.395 54.4238H298.596V52.8906H302.395C303.13 52.8906 303.726 52.7734 304.182 52.5391C304.637 52.3047 304.969 51.9792 305.178 51.5625C305.393 51.1458 305.5 50.6706 305.5 50.1367C305.5 49.6484 305.393 49.1895 305.178 48.7598C304.969 48.3301 304.637 47.985 304.182 47.7246C303.726 47.4577 303.13 47.3242 302.395 47.3242H299.035V60H297.15V45.7812H302.395C303.469 45.7812 304.377 45.9668 305.119 46.3379C305.861 46.709 306.424 47.2233 306.809 47.8809C307.193 48.5319 307.385 49.2773 307.385 50.1172C307.385 51.0286 307.193 51.8066 306.809 52.4512C306.424 53.0957 305.861 53.5872 305.119 53.9258C304.377 54.2578 303.469 54.4238 302.395 54.4238ZM318.801 58.4668V60H311.271V58.4668H318.801ZM311.652 45.7812V60H309.768V45.7812H311.652ZM317.805 51.8945V53.4277H311.271V51.8945H317.805ZM318.703 45.7812V47.3242H311.271V45.7812H318.703ZM321.135 45.7812H325.842C326.91 45.7812 327.811 45.944 328.547 46.2695C329.289 46.5951 329.852 47.0768 330.236 47.7148C330.627 48.3464 330.822 49.1243 330.822 50.0488C330.822 50.6999 330.689 51.2956 330.422 51.8359C330.161 52.3698 329.784 52.8255 329.289 53.2031C328.801 53.5742 328.215 53.8509 327.531 54.0332L327.004 54.2383H322.58L322.561 52.7051H325.9C326.577 52.7051 327.141 52.5879 327.59 52.3535C328.039 52.1126 328.378 51.7904 328.605 51.3867C328.833 50.9831 328.947 50.5371 328.947 50.0488C328.947 49.502 328.84 49.0234 328.625 48.6133C328.41 48.2031 328.072 47.8874 327.609 47.666C327.154 47.4382 326.564 47.3242 325.842 47.3242H323.02V60H321.135V45.7812ZM329.445 60L325.988 53.5547L327.951 53.5449L331.457 59.8828V60H329.445Z" fill="black"/>
</svg>
