<svg width="105" height="49" viewBox="0 0 105 49" fill="none" xmlns="http://www.w3.org/2000/svg">
<path d="M15.1055 4.9375V22H12.832L4.24219 8.83984V22H1.98047V4.9375H4.24219L12.8672 18.1328V4.9375H15.1055ZM21.5391 4.9375V22H19.2773V4.9375H21.5391ZM35.9531 16.5742H38.2031C38.0859 17.6523 37.7773 18.6172 37.2773 19.4688C36.7773 20.3203 36.0703 20.9961 35.1562 21.4961C34.2422 21.9883 33.1016 22.2344 31.7344 22.2344C30.7344 22.2344 29.8242 22.0469 29.0039 21.6719C28.1914 21.2969 27.4922 20.7656 26.9062 20.0781C26.3203 19.3828 25.8672 18.5508 25.5469 17.582C25.2344 16.6055 25.0781 15.5195 25.0781 14.3242V12.625C25.0781 11.4297 25.2344 10.3477 25.5469 9.37891C25.8672 8.40234 26.3242 7.56641 26.918 6.87109C27.5195 6.17578 28.2422 5.64062 29.0859 5.26562C29.9297 4.89062 30.8789 4.70312 31.9336 4.70312C33.2227 4.70312 34.3125 4.94531 35.2031 5.42969C36.0938 5.91406 36.7852 6.58594 37.2773 7.44531C37.7773 8.29688 38.0859 9.28516 38.2031 10.4102H35.9531C35.8438 9.61328 35.6406 8.92969 35.3438 8.35938C35.0469 7.78125 34.625 7.33594 34.0781 7.02344C33.5312 6.71094 32.8164 6.55469 31.9336 6.55469C31.1758 6.55469 30.5078 6.69922 29.9297 6.98828C29.3594 7.27734 28.8789 7.6875 28.4883 8.21875C28.1055 8.75 27.8164 9.38672 27.6211 10.1289C27.4258 10.8711 27.3281 11.6953 27.3281 12.6016V14.3242C27.3281 15.1602 27.4141 15.9453 27.5859 16.6797C27.7656 17.4141 28.0352 18.0586 28.3945 18.6133C28.7539 19.168 29.2109 19.6055 29.7656 19.9258C30.3203 20.2383 30.9766 20.3945 31.7344 20.3945C32.6953 20.3945 33.4609 20.2422 34.0312 19.9375C34.6016 19.6328 35.0312 19.1953 35.3203 18.625C35.6172 18.0547 35.8281 17.3711 35.9531 16.5742ZM43.5469 4.9375V22H41.2852V4.9375H43.5469ZM53.8477 4.9375L46.7578 12.8945L42.7734 17.0312L42.3984 14.6172L45.3984 11.3125L51.1289 4.9375H53.8477ZM51.668 22L45.3516 13.6797L46.6992 11.8867L54.3633 22H51.668Z" fill="black"/>
<path d="M25.2422 29.9375V47H22.9805V29.9375H25.2422ZM32.3906 37.6133V39.4648H24.75V37.6133H32.3906ZM33.5508 29.9375V31.7891H24.75V29.9375H33.5508ZM47.0859 45.1602V47H38.0508V45.1602H47.0859ZM38.5078 29.9375V47H36.2461V29.9375H38.5078ZM45.8906 37.2734V39.1133H38.0508V37.2734H45.8906ZM46.9688 29.9375V31.7891H38.0508V29.9375H46.9688ZM60.2344 45.1602V47H51.7031V45.1602H60.2344ZM52.1484 29.9375V47H49.8867V29.9375H52.1484ZM65.0859 29.9375V47H62.8242V29.9375H65.0859ZM75.3867 29.9375L68.2969 37.8945L64.3125 42.0312L63.9375 39.6172L66.9375 36.3125L72.668 29.9375H75.3867ZM73.207 47L66.8906 38.6797L68.2383 36.8867L75.9023 47H73.207ZM88.7344 45.1602V47H79.6992V45.1602H88.7344ZM80.1562 29.9375V47H77.8945V29.9375H80.1562ZM87.5391 37.2734V39.1133H79.6992V37.2734H87.5391ZM88.6172 29.9375V31.7891H79.6992V29.9375H88.6172ZM91.5352 29.9375H97.1836C98.4648 29.9375 99.5469 30.1328 100.43 30.5234C101.32 30.9141 101.996 31.4922 102.457 32.2578C102.926 33.0156 103.16 33.9492 103.16 35.0586C103.16 35.8398 103 36.5547 102.68 37.2031C102.367 37.8438 101.914 38.3906 101.32 38.8438C100.734 39.2891 100.031 39.6211 99.2109 39.8398L98.5781 40.0859H93.2695L93.2461 38.2461H97.2539C98.0664 38.2461 98.7422 38.1055 99.2812 37.8242C99.8203 37.5352 100.227 37.1484 100.5 36.6641C100.773 36.1797 100.91 35.6445 100.91 35.0586C100.91 34.4023 100.781 33.8281 100.523 33.3359C100.266 32.8438 99.8594 32.4648 99.3047 32.1992C98.7578 31.9258 98.0508 31.7891 97.1836 31.7891H93.7969V47H91.5352V29.9375ZM101.508 47L97.3594 39.2656L99.7148 39.2539L103.922 46.8594V47H101.508Z" fill="black"/>
</svg>
